<svg xmlns="http://www.w3.org/2000/svg" width="9.719" height="11.5" viewBox="0 0 9.719 11.5">
  <defs>
    <style>
      .cls-1 {
        fill-rule: evenodd;
      }
    </style>
  </defs>
  <path id="Composite_Path" data-name="Composite Path" class="cls-1" d="M612.262,2055.16h-2.588a2.249,2.249,0,0,0-2.243,2.25v1.31a3.1,3.1,0,0,0-2.647,3.07,0.448,0.448,0,0,0,.448.45h5.294a0.449,0.449,0,0,0,.449-0.45,3.1,3.1,0,0,0-2.647-3.07v-1.31a1.347,1.347,0,0,1,1.346-1.35h2.588a1.346,1.346,0,0,1,1.345,1.35v8.79a0.449,0.449,0,1,0,.9,0v-8.79A2.25,2.25,0,0,0,612.262,2055.16Zm-2.23,6.18h-4.305A2.2,2.2,0,0,1,610.032,2061.34Zm-1.7,1.99V2064a0.449,0.449,0,1,1-.9,0v-0.67A0.449,0.449,0,1,1,608.328,2063.33Zm0,2.2v0.67a0.449,0.449,0,1,1-.9,0v-0.67A0.449,0.449,0,1,1,608.323,2065.53Zm-1.757-2.2V2064a0.449,0.449,0,1,1-.9,0v-0.67A0.449,0.449,0,1,1,606.566,2063.33Zm0,2.2v0.67a0.449,0.449,0,1,1-.9,0v-0.67A0.449,0.449,0,1,1,606.561,2065.53Zm3.524-2.2V2064a0.449,0.449,0,1,1-.9,0v-0.67A0.449,0.449,0,1,1,610.085,2063.33Zm-0.006,2.2v0.67a0.448,0.448,0,1,1-.9,0v-0.67A0.448,0.448,0,1,1,610.079,2065.53Z" transform="translate(-604.781 -2055.16)"/>
</svg>
